# xmcd
#
# Track frame offsets: 
#        150
#        13215
#        26460
#        40355
#        55530
#        67780
#        79240
#        90595
#        104930
#        121455
#
# Disc length: 1815 seconds
#
# Revision: 0
# Processed by: cddbd v1.5.1PL2 Copyright (c) Steve Scherf et al.
# Submitted via: ExactAudioCopy v0.95b3
#
DISCID=7e07150a
DTITLE=Tony Booth - Something "Bout You Baby
DYEAR=2006
DGENRE=Country
TTITLE0=Something 'Bout You Baby
TTITLE1=Atlanta, GA Stray
TTITLE2=Arms of A Tennessee Woman
TTITLE3=I'll Give Up
TTITLE4=Lady Alone
TTITLE5=All Night Long
TTITLE6=Bet My Soul
TTITLE7=Fading Tail Lights
TTITLE8=Nothing Seems to Work Anymore
TTITLE9=Letting Go
EXTD=
EXTT0=
EXTT1=
EXTT2=
EXTT3=
EXTT4=
EXTT5=
EXTT6=
EXTT7=
EXTT8=
EXTT9=
PLAYORDER=
